<svg xmlns = 'http://www.w3.org/2000/svg' width = '2722' height = '1451'>
<g transform = "scale(1)" > <path style="fill:#000000;fill-rule:evenodd;fill-opacity:1;stroke:none;"  d="  M 526.6361,0   C 524.39612,0 521.83613,2.3199828 519.59615,9.9999259   C 518.15616,12.719906 505.51626,58.879564 487.67639,76.399434   C 466.71654,96.879282 440.87673,85.919364 433.43679,66.959504   C 432.2368,64.159525 415.75692,106.23921 376.55721,128.31905   C 361.19732,137.03898 344.23745,142.95894 329.43756,133.83901   C 327.67757,132.63902 325.99759,131.35903 324.4776,130.07904   C 308.79771,117.11913 305.43774,108.95919 280.95792,113.27916   C 102.95924,144.47893 0,307.43772 0,307.43772   L 38.399716,307.43772   C 168.15875,183.43864 260.47807,202.4785 282.79791,215.3584   C 292.71783,221.03836 305.11774,226.55832 312.15769,227.51831   C 353.35738,233.27827 377.4372,212.47843 409.35697,182.71865   C 409.35697,182.71865 413.67694,178.31868 420.71688,179.83867   C 430.15681,181.91865 497.59631,202.6385 531.75606,6.2399538   C 531.75606,4.1599692 529.51608,0.079999407 526.6361,0   z " transform="translate(2363.591309, 615.985840) scale(0.547763) "></path> <path style="fill:#000000;fill-rule:evenodd;fill-opacity:1;stroke:none;"  d="  M 47.359649,39.11971   C 58.319568,29.75978 85.759365,39.11971 85.759365,39.11971   L 85.759365,39.11971   C 114.87915,36.799727 153.19887,32.319761 174.31871,25.439812   C 220.23837,10.639921 253.67812,-2.3999822 269.918,0.39999704   C 280.87792,2.2399834 304.07775,29.919778 271.99799,69.519485   C 239.83822,109.11919 234.71826,111.43917 208.79845,169.51874   C 182.87865,227.51831 115.83914,359.67734 0,359.67734   L 23.279828,202.1585   C 48.479641,206.63847 126.95906,211.75843 197.99853,102.39924   C 199.75852,99.679262 201.27851,95.759291 200.87851,92.799313   C 200.87851,92.799313 96.239287,116.47914 71.999467,115.83914   C 43.119681,115.11915 11.359916,100.79925 47.359649,39.11971   z " transform="translate(2337.922852, 762.851318) scale(0.547763) "></path> <path style="fill:#000000;fill-rule:evenodd;fill-opacity:1;stroke:none;"  d="  M 109.11919,0   C 107.19921,-0.079999407 105.19922,5.0399627 99.91926,20.479848   C 84.239376,66.879505 76.239435,93.439308 60.879549,139.11897   C 59.279561,143.91893 49.279635,181.67865 44.55967,218.07838   C 36.159732,283.0379 -1.5199887,566.9558 0.15999881,657.51513   C -3.2799757,765.91433 39.919704,833.67382 125.35907,838.95379   C 145.67892,839.59378 167.03876,687.03491 148.6389,681.43495   C 117.59913,675.83499 53.199606,637.51528 60.479552,523.51612   C 68.399493,399.99704 105.03922,86.559359 112.95916,14.079896   C 112.95916,14.079896 112.39917,0.15999881 109.11919,0   z " transform="translate(2269.518555, 500.214722) scale(0.547763) "></path> <path style="fill:#000000;fill-rule:evenodd;fill-opacity:1;stroke:none;"  d="  M 1901.6659,7.4399449   C 1887.666,29.67978 1865.9862,51.919615 1847.5863,67.759498   C 1689.1075,204.71848 1482.709,239.03823 1309.7503,269.27801   C 988.31268,325.11759 759.27438,345.11744 389.59711,306.63773   C 247.19817,291.75784 138.31898,264.23804 26.399804,217.11839   C 4.4799668,207.43846 -0.079999407,254.79811 0,270.158   C 0.39999704,326.39758 18.399864,399.03704 132.95902,439.11675   C 269.19801,486.79639 720.23466,504.55626 1115.4317,444.07671   C 1467.5091,390.15711 1623.988,314.71767 1772.7869,200.55851   C 1811.7466,170.63874 1868.0662,97.519278 1888.626,57.599573   C 1899.2659,36.879727 1905.2659,23.359827 1911.3458,10.399923   C 1917.5058,-4.2399686 1907.1059,-1.6799876 1901.6659,7.4399449   z " transform="translate(1175.249512, 684.535156) scale(0.547763) "></path> <path style="fill:#000000;fill-rule:evenodd;fill-opacity:1;stroke:none;"  d="  M 83.519381,0.95999289   C 94.399301,5.1999615 182.87865,40.879697 183.27864,96.319287   C 183.51864,148.9589 120.55911,194.47856 113.27916,196.95854   C 104.47923,201.51851 99.439263,200.63851 91.999319,193.99856   C 90.319331,192.63857 4.0799698,134.879 1.9999852,129.35904   C -0.15999881,123.75908 -1.4399893,120.79911 2.7999793,114.39915   C 7.1199473,107.9992 72.319464,8.3199384 76.159436,3.5999733   C 79.999407,-1.1199917 80.479404,-0.31999763 83.519381,0.95999289   z " transform="translate(1648.082275, 1022.794678) scale(0.547763) "></path> <path style="fill:#000000;fill-rule:evenodd;fill-opacity:1;stroke:none;"  d="  M 98.799268,26.639803   C 60.79955,107.27921 25.279813,210.31844 23.919823,348.15742   C 22.399834,495.03633 25.199813,623.43538 1.1999911,708.79475   C -2.159984,720.63466 0.23999822,747.83446 24.799816,699.35482   C 63.919527,621.91539 94.239302,511.27621 97.599277,361.91732   C 100.87925,211.59843 104.87922,95.83929 118.47912,30.159777   C 125.43907,-3.1199769 118.39912,-15.039889 98.799268,26.639803   z " transform="translate(1207.475586, 353.564453) scale(0.547763) "></path> <path style="fill:#000000;fill-rule:evenodd;fill-opacity:1;stroke:none;"  d="  M 1009.3525,0   C 1005.1926,-0.079999407 999.99259,0.63999526 993.67264,2.4799816   C 967.35283,10.079925 926.95313,26.319805 861.27362,66.239509   C 836.07381,81.519396 784.63419,111.75917 714.15471,153.19887   C 265.91803,408.63697 0,364.6373 0,364.6373   L 0,524.23612   C 217.43839,524.23612 445.2767,410.39696 703.43479,241.75821   L 703.43479,241.83821   C 704.79478,240.95822 705.91477,240.15822 707.19476,239.35823   C 707.91476,238.87823 708.63475,238.39823 709.35475,237.99824   L 709.35475,237.91824   C 801.99406,177.27869 874.71352,127.51906 923.75316,102.79924   C 936.31306,96.479285 969.99281,84.239376 978.87275,74.959445   C 1002.6326,50.079629 1020.5524,15.679884 1022.5524,9.5999289   C 1023.9924,5.1999615 1020.0724,0.079999407 1009.3525,0   z " transform="translate(602.102783, 607.992371) scale(0.547763) "></path> <path style="fill:#000000;fill-rule:evenodd;fill-opacity:1;stroke:none;"  d="  M 284.87789,40.159703   C 259.35808,37.999719 213.83842,32.719758 166.79876,7.6799431   C 132.07902,-10.79992 101.11925,2.4799816 46.079659,66.639506   C 14.559892,103.35923 0,111.99917 0,111.99917   L 0,187.43861   C 0,187.43861 31.519767,161.5188 54.399597,138.87897   C 65.759513,127.67905 81.919393,112.39917 119.51911,143.75894   C 167.67876,183.83864 222.39835,197.43854 284.87789,199.75852   C 300.79777,197.11854 303.83775,43.999674 284.87789,40.159703   z " transform="translate(446.335449, 785.621216) scale(0.547763) "></path> <path style="fill:#000000;fill-rule:evenodd;fill-opacity:1;stroke:none;"  d="  M 247.66992 0.01171875 C 246.13087 0.067968273 244.56834 1.0297098 242.31836 3.6796875 C 238.63838 7.8396525 172.63856 101.75959 168.55859 107.51953 C 168.31935 107.86405 168.1311 108.19484 167.91602 108.5332 C 167.47867 67.482454 120.09733 48.388649 85.439453 28.080078 C 82.719476 26.880088 80.799188 26.799098 77.199219 31.039062 C 73.519249 35.279027 7.5194977 129.11895 3.5195312 134.87891 C -0.56043442 140.63886 -1.1998155 145.67987 2.1601562 147.83984 C 22.959981 161.43973 78.800325 202.63798 80.320312 203.91797 C 87.040256 210.07791 92.158425 211.03911 100.31836 207.11914 C 106.68232 205.02277 159.56754 164.87637 167.04492 120.25977 C 167.10278 120.30152 167.13869 120.35858 167.19922 120.39844 C 188.07905 134.07832 243.91743 175.27861 245.35742 176.55859 C 252.07737 182.71855 257.19757 183.6777 265.4375 179.67773 C 272.15744 177.51776 332.15712 131.83928 333.03711 83.679688 C 334.4771 40.880047 285.9183 21.440529 250.55859 0.72070312 C 249.5086 0.27070691 248.59335 -0.022030964 247.66992 0.01171875 z " transform="translate(409.173828, 508.332153) scale(0.547763) "></path> <path style="fill:#000000;fill-rule:evenodd;fill-opacity:1;stroke:none;"  d="  M 229.7583,0   C 184.31863,0.079999407 158.23883,56.159584 131.59903,119.27912   C 115.43914,156.07884 122.63909,175.6787 122.63909,175.6787   C 140.15896,228.07831 193.43857,219.75837 215.3584,218.07838   C 237.19824,216.3984 238.95823,223.51834 225.11833,240.47822   C 177.67868,298.55779 70.719476,374.63722 7.1999467,413.59694   C -10.079925,430.87681 8.0799401,437.11676 16.879875,435.59677   C 53.519604,429.35682 119.83911,406.95699 161.7588,384.15715   C 191.51858,368.07727 237.19824,318.47764 281.99791,210.15844   C 283.6779,206.15847 285.27789,201.9185 286.79788,197.51854   C 295.91781,189.2786 305.11774,180.95866 312.63768,174.31871   C 321.59762,162.1588 319.59763,95.679291 312.63768,98.879268   C 311.27769,99.91926 309.59771,101.19925 308.15772,102.31924   C 312.71768,41.599692 285.99788,13.599899 247.35817,2.559981   C 241.19821,0.79999407 235.27826,0 229.7583,0   z " transform="translate(275.361572, 792.698669) scale(0.547763) "></path> <path style="fill:#000000;fill-rule:evenodd;fill-opacity:1;stroke:none;"  d="  M 398.71705,5.8399567   C 398.71705,5.8399567 368.71727,102.31924 299.99778,187.75861   C 244.39819,256.9581 181.35866,312.95768 132.95902,352.79739   C 84.559374,392.55709 8.0799401,460.55659 3.3599751,465.27655   C -1.2799905,469.91652 -1.9199858,473.27649 6.6399508,469.43652   C 15.279887,465.51655 121.7591,392.23709 188.07861,393.75708   C 258.31809,395.27707 279.51793,347.19743 306.23773,305.99773   C 326.55758,274.79796 395.35707,133.19901 408.63697,9.1199324   C 409.83696,1.3599899 402.23702,-5.1199621 398.71705,5.8399567   z " transform="translate(114.714844, 626.411255) scale(0.547763) "></path> <path style="fill:#000000;fill-rule:evenodd;fill-opacity:1;stroke:none;"  d="  M 28.079792,412.15695   C 32.719758,400.07704 96.159288,363.75731 171.03873,324.5576   C 266.71802,273.83797 706.63477,69.199487 738.87453,55.35959   C 756.79439,47.839646 750.39444,50.719624 757.35439,32.319761   C 761.35436,21.919838 765.99433,11.519915 768.31431,0   C 685.27492,29.439782 264.47804,229.9983 186.07862,270.398   C 113.43916,308.39772 39.599707,350.4774 22.879831,377.03721   C 15.999881,387.99713 -4.7999644,441.03673 0.95999289,455.99662   C 7.9199413,475.59648 51.119621,491.19636 78.799416,489.43637   C 83.999378,481.35643 99.039266,445.0367 98.399271,434.63678   C 73.039459,430.07681 75.919438,437.51676 42.479685,421.99687   C 33.279753,417.9969 32.159762,418.5569 28.079792,412.15695   z " transform="translate(1650.345947, 447.992737) scale(0.547763) "></path> <path style="fill:#000000;fill-rule:evenodd;fill-opacity:1;stroke:none;"  d="  M 98.879268,135.67899   C 97.679276,127.59905 101.19925,98.239272 59.679558,48.63964   C 46.959652,32.479759 23.919823,16.319879 10.639921,46.399656   C -8.3999378,91.359323 -3.7599721,93.11931 39.519707,113.27916   C 42.399686,114.31915 43.519678,116.79913 46.399656,116.79913   C 51.599618,113.83916 51.039622,102.87924 55.039592,99.999259   C 61.359545,101.67925 73.519455,134.07901 76.95943,142.07895   C 83.279383,160.55881 85.03937,191.11858 89.03934,194.55856   C 107.5192,191.67858 128.79905,63.759528 150.71888,44.159673   C 162.2388,33.75975 177.27869,37.199724 189.3586,46.319657   C 195.67855,51.439619 196.31855,47.919645 197.43854,41.119695   C 198.55853,34.719743 204.31849,16.319879 200.87851,11.119918   C 197.43854,6.479952 184.79863,0.71999467 176.71869,0.15999881   C 142.63894,-3.2799757 127.11906,47.999644 116.71914,88.399345   C 109.83919,112.55917 100.55926,137.91898 98.879268,135.599   z " transform="translate(320.316162, 315.768860) scale(0.547763) "></path> <path style="fill:#000000;fill-rule:evenodd;fill-opacity:1;stroke:none;"  d="  M 0.31999763,291.03784   C 3.2799757,280.71792 13.919897,260.23807 20.159851,251.99813   C 26.479804,243.75819 64.719521,207.67846 120.47911,166.95876   C 202.7185,107.03921 296.4778,28.39979 309.19771,9.2799313   C 321.83762,-9.8399271 323.03761,5.3599603 320.31763,12.719906   C 317.67765,20.079851 301.19777,51.999615 288.71786,63.119532   C 282.47791,68.719491 226.95832,121.6791 176.31869,159.91882   C 118.47912,203.43849 31.279768,268.07801 10.959919,291.91784   C 10.959919,291.91784 -2.2399834,301.67777 0.31999763,291.03784   z " transform="translate(2442.350342, 365.947510) scale(0.547763) "></path> <path style="fill:#000000;fill-rule:evenodd;fill-opacity:1;stroke:none;"  d="  M 110.71918,73.439456   C 87.679351,90.799327 -1.6799876,137.43898 0,147.8389   C 1.759987,157.67883 62.879534,135.75899 74.959445,132.87902   C 127.43906,121.3591 126.23906,113.27916 153.35886,67.199502   C 184.47863,14.639892 170.07874,4.319968 137.19898,0.79999407   C 121.6791,-0.31999763 59.43956,-1.3599899 49.039637,5.4399597   C 42.079688,10.079925 18.479863,57.919571 15.039889,66.559507   C 10.399923,78.639417 29.439782,70.639477 64.559522,69.439486   C 72.079466,68.959489 89.999333,67.279502 102.63924,67.279502   C 111.27918,67.279502 120.47911,66.239509 110.71918,73.599455   z " transform="translate(803.534546, 419.387329) scale(0.547763) "></path> <path style="fill:#000000;fill-rule:evenodd;fill-opacity:1;stroke:none;"  d="  M 514.95619,33.839749   C 525.59611,12.399908 540.79599,-13.199902 542.47598,7.8399419   C 544.15597,28.799787 530.63607,78.879416 486.6364,117.75913   C 445.1967,154.39886 409.99696,160.39881 394.39708,155.35885   C 394.39708,155.35885 372.55724,185.51863 332.15754,189.3586   C 311.75769,190.47859 297.75779,189.0386 292.23784,191.19858   C 286.71788,193.43857 251.43814,215.11841 214.87841,228.23831   C 151.99887,250.79814 60.879549,258.39809 4.3999674,247.59817   C -3.3599751,246.07818 -2.8799787,235.03826 22.639832,232.07828   C 76.239435,225.99833 135.67899,208.23846 174.55871,194.55856   C 202.7185,184.55863 265.67803,170.23874 310.4777,121.5991   C 324.79759,105.03922 328.15757,86.239361 341.91747,105.59922   C 350.7974,118.87912 386.79713,118.07913 408.95697,95.599292   C 419.67689,84.719372 430.87681,65.279516 434.71678,59.199561   C 438.63675,53.119607 440.79673,61.439545 443.03672,69.679484   C 460.39659,91.119325 501.43629,60.879549 514.95619,33.839749   z " transform="translate(817.563721, 805.316895) scale(0.547763) "></path></g>
</svg>
